# xmcd
#
# Track frame offsets:
#	150
#	16005
#	30377
#	43445
#	57626
#	72234
#	84436
#	102540
#	119262
#	133049
#	154335
#	165154
#	179661
#
# Disc length: 2688 seconds
#
# Revision: 1
# Processed by: cddbd v1.5.2PL0 Copyright (c) Steve Scherf et al.
# Submitted via: audiograbber 1.83.01
#
DISCID=af0a7e0d
DTITLE=Steve Miller Band - Greatest Hits 74-78
DYEAR=1900
DGENRE=
TTITLE0=Swingtown
TTITLE1=Jungle Love
TTITLE2=Take The Money and Run
TTITLE3=Serenade
TTITLE4=True Fine Love
TTITLE5=The Stake 
TTITLE6=The Joker
TTITLE7=Fly Like An Eagle
TTITLE8=Threshold
TTITLE9=Jet Airliner
TTITLE10=Dance, Dance, Dance
TTITLE11=Winter Time
TTITLE12=Wild Mountain Honey
EXTD=
EXTT0=
EXTT1=
EXTT2=
EXTT3=
EXTT4=
EXTT5=
EXTT6=
EXTT7=
EXTT8=
EXTT9=
EXTT10=
EXTT11=
EXTT12=
PLAYORDER=
